<?xml version="1.0" encoding="UTF-8" standalone="no"?>
<svg
   width="16"
   height="16"
   version="1.1"
   id="svg1"
   sodipodi:docname="DynamicOutline2D.svg"
   xml:space="preserve"
   inkscape:version="1.3.2 (091e20e, 2023-11-25, custom)"
   xmlns:inkscape="http://www.inkscape.org/namespaces/inkscape"
   xmlns:sodipodi="http://sodipodi.sourceforge.net/DTD/sodipodi-0.dtd"
   xmlns="http://www.w3.org/2000/svg"
   xmlns:svg="http://www.w3.org/2000/svg"><defs
     id="defs1" /><sodipodi:namedview
     id="namedview1"
     pagecolor="#505050"
     bordercolor="#ffffff"
     borderopacity="1"
     inkscape:showpageshadow="0"
     inkscape:pageopacity="0"
     inkscape:pagecheckerboard="1"
     inkscape:deskcolor="#505050"
     inkscape:zoom="45.254834"
     inkscape:cx="7.258893"
     inkscape:cy="6.9716309"
     inkscape:current-layer="svg1" /><path
     id="path1"
     style="color:#000000;fill:#8da5f3;stroke-linecap:round;stroke-linejoin:round;-inkscape-stroke:none"
     d="M 12.007812,1.5019531 C 11.361549,1.4942372 10.706208,1.7931894 10.294922,2.4824219 8.8288054,2.6144492 7.7390741,3.1437768 7.0234375,3.9648438 5.9846926,4.9708028 7.922653,7.2647964 7.6994453,9.096237 7.4762377,10.927678 4.5097656,11.146484 4.5097656,11.146484 L 2.7050781,8.7402344 c 0,0 -0.9777759,-2.6635502 -0.3130506,-3.668481 C 3.0560123,4.0679422 4.1854749,3.680501 6.987888,5.3846764 L 7.9502648,3.2424889 C 5.5977757,1.4978399 2.9984309,1.7948669 1.190635,3.8708897 -0.22344331,6.3728872 0.2277764,7.9225113 1.1054688,9.9394531 l 3,3.9999999 c 0.4936652,0.656099 1.5239157,0.470654 1.7578124,-0.316406 0,0 3.6839745,-1.94347 4.0713047,-3.7466327 C 10.245001,8.4313173 8.192645,5.7987177 8.192645,5.7987177 8.2524775,5.6638417 8.3811132,5.4516369 8.53125,5.2792969 8.8772552,4.8805828 9.3691072,4.5692373 10.269531,4.4707031 11.220155,6.171195 13.791802,5.6477381 14.001953,3.7109375 14.137852,2.3801588 13.084918,1.514813 12.007812,1.5019531 Z"
     sodipodi:nodetypes="scczccsccccccsccccs" /></svg>
